<svg xmlns="http://www.w3.org/2000/svg" version="1.1" xmlns:xlink="http://www.w3.org/1999/xlink" xmlns:svgjs="http://svgjs.com/svgjs" width="1440" height="560" preserveAspectRatio="none" viewBox="0 0 1440 560"><g mask="url(&quot;#SvgjsMask1010&quot;)" fill="none"><rect width="1440" height="560" x="0" y="0" fill="rgba(33, 36, 40, 1)"></rect><path d="M39.62 140C29.9 104.65 9.81 111.04 0 76.36C-10 41.04 -24.71 13.47 0 0C45.29 -24.71 70 0 140 0C184.68 0 186.92 -8.59 229.36 0C256.92 5.58 253.62 16.34 280 28.33C348.94 59.67 361.37 95.07 420 86.67C460.26 80.9 438.66 24.22 477.78 0C508.66 -19.12 518.89 0 560 0C630 0 630 0 700 0C770 0 770 0 840 0C910 0 910 0 980 0C1050 0 1050 0 1120 0C1178.57 0 1180.33 -5.98 1237.14 0C1250.33 1.39 1248.05 14.74 1260 14.74C1275.48 14.74 1274.78 1.81 1292 0C1344.78 -5.56 1346 0 1400 0C1455.59 0 1456.81 -5.36 1511.18 0C1526.81 1.54 1537.09 -0.34 1540 13.8C1551.5 69.66 1540 76.9 1540 140C1540 198.18 1549.07 201.9 1540 256.36C1537.41 271.9 1516.67 267.46 1516.67 280C1516.67 294.45 1536.98 292.22 1540 310.33C1548.65 362.22 1540 365.16 1540 420C1540 490 1571.45 521.45 1540 560C1514.34 591.45 1477.86 571.05 1425.79 560C1407.86 556.2 1412.45 530.3 1400 530.3C1388.16 530.3 1394.16 556.41 1377.21 560C1324.16 571.26 1318.61 560 1260 560C1190 560 1190 560 1120 560C1103.66 560 1102.49 565.36 1087.33 560C1032.49 540.59 1027.21 544.34 980 510.46C929.67 474.34 937.23 464.07 892.24 420C867.23 395.51 864.4 373.33 840 373.33C818.84 373.33 807.63 391.76 801.11 420C786.09 485.1 826.8 518.63 796.92 560C776.24 588.63 748.46 560 700 560C630 560 630 560 560 560C490 560 490 560 420 560C374.71 560 346.91 587.5 329.41 560C302.36 517.5 347.45 482.5 330.91 420C322.75 389.17 311.25 384.79 280 373.33C215.79 349.79 203.26 376.36 140 350C91.26 329.69 77.93 325.87 56 280C27.74 220.87 57.9 206.47 39.62 140" stroke="rgba(131, 100, 226, 1)" stroke-width="2"></path><path d="M1120 106.3C1102.57 106.3 1096.9 120.05 1080.43 140C1026.9 204.84 1030.12 207.87 980 275.88C978.53 277.87 977.25 278.02 977.25 280C977.25 281.71 977.9 282.99 980 283.26C1049.28 292.23 1051.34 299.72 1120 298.49C1142.65 298.09 1159.83 299.59 1162.61 280C1171.07 220.35 1159.03 207.52 1142.47 140C1137.73 120.67 1133.59 106.3 1120 106.3" stroke="rgba(131, 100, 226, 1)" stroke-width="2"></path><path d="M700 185.29C676.98 185.29 652.65 238.05 652.65 280C652.65 303.7 676.64 316.59 700 316.59C722.37 316.59 744.11 303.26 744.11 280C744.11 237.61 722.71 185.29 700 185.29" stroke="rgba(131, 100, 226, 1)" stroke-width="2"></path><path d="M0 483C46.23 439.99 84.44 410.97 140 429.77C198.19 449.47 227.5 518.2 227.5 560C227.5 583.31 183.75 560 140 560C70 560 45.16 584.84 0 560C-24.84 546.34 -23.77 505.11 0 483" stroke="rgba(131, 100, 226, 1)" stroke-width="2"></path><path d="M105.66 140C85.39 73.27 69.5 49.62 81.67 0C86.67 -20.38 110.84 0 140 0C147.44 0 148.3 -3.29 154.89 0C218.3 31.71 218.07 33.93 280 70C338.27 103.93 341.13 101.03 395.29 140C411.13 151.39 407.79 170.73 420 170.73C432.03 170.73 433.03 156.17 443.77 140C489.7 70.81 483.25 60.32 533.33 0C541.37 -9.68 546.66 0 560 0C630 0 630 0 700 0C732.66 0 765.33 -15.98 765.33 0C765.33 26.02 730.69 40.65 700 84C681.13 110.65 680.91 110.83 666.21 140C631.5 208.83 591.84 220.2 601.18 280C608.74 328.38 652.99 315.49 700 356.36C733.51 385.49 762.22 384.78 762.22 420C762.22 466.6 743.34 485.17 700 520C656.23 555.17 644.66 543.81 588 560C574.66 563.81 574 560 560 560C490 560 490 560 420 560C400.44 560 381.91 575.03 380.88 560C377.13 505.03 433 478.03 410.45 420C382.56 348.24 347.14 357.65 280 300.42C265.02 287.65 261.79 292.06 246.21 280C191.79 237.85 188.41 240.22 140 192C118.13 170.22 114.55 169.27 105.66 140" stroke="rgba(131, 100, 226, 1)" stroke-width="2"></path><path d="M921.05 140C899.58 81.66 896.09 48.13 916.36 0C925.57 -21.87 948.18 0 980 0C1050 0 1050 0 1120 0C1142.86 0 1165.71 -8.82 1165.71 0C1165.71 11.92 1143.31 21.26 1120 41.48C1062.63 91.26 1059.48 88.23 1004.35 140C989.48 153.96 995.73 172.94 980 172.94C954.08 172.94 931.4 168.13 921.05 140" stroke="rgba(131, 100, 226, 1)" stroke-width="2"></path><path d="M1185.68 140C1185.68 96.99 1215.88 90.73 1260 60.79C1319.04 20.73 1325.65 28.81 1392 0C1395.65 -1.59 1396 0 1400 0C1404.12 0 1404.5 -1.68 1408.24 0C1474.5 29.87 1496.84 17.24 1540 63.1C1562.72 87.24 1540 101.55 1540 140C1540 175.45 1554.4 181.36 1540 210.91C1520.29 251.36 1471.79 243.35 1471.79 280C1471.79 322.23 1516.62 320.69 1540 368.67C1550.73 390.69 1540 394.34 1540 420C1540 490 1562.92 512.92 1540 560C1528.84 582.92 1498.69 575.86 1471.84 560C1428.69 534.5 1434.67 477.27 1400 477.27C1367 477.27 1376.89 536.14 1336.51 560C1306.89 577.51 1298.26 560 1260 560C1209.39 560 1198.9 578.52 1158.77 560C1128.9 546.21 1150.53 513.04 1120 495.38C1061.15 461.35 1044.95 484.51 980 456.62C957.19 446.82 944.48 440.09 944.48 420C944.48 394.1 951.95 373.51 980 364.65C1039.71 345.78 1050 364.69 1120 364.53C1190 364.37 1209.09 389.97 1260 364C1291.94 347.7 1285.71 318.59 1285.71 280C1285.71 264.48 1270.22 270.07 1260 255.77C1220.2 200.07 1185.68 194.48 1185.68 140" stroke="rgba(131, 100, 226, 1)" stroke-width="2"></path><path d="M792.05 280C792.05 235.51 812.21 182.78 840 182.78C870.5 182.78 908.63 237.62 908.63 280C908.63 309.56 872.27 326.67 840 326.67C813.98 326.67 792.05 307.46 792.05 280" stroke="rgba(131, 100, 226, 1)" stroke-width="2"></path><path d="M23.33 560C23.33 547.3 88.99 511.16 140 511.16C163.73 511.16 172.81 544.32 172.81 560C172.81 568.74 156.4 560 140 560C81.66 560 23.33 571.72 23.33 560" stroke="rgba(131, 100, 226, 1)" stroke-width="2"></path><path d="M197.93 140C197.93 118.38 240.48 111.67 280 111.67C304.85 111.67 326.67 120.82 326.67 140C326.67 168.98 308.08 208 280 208C243.71 208 197.93 166.54 197.93 140" stroke="rgba(131, 100, 226, 1)" stroke-width="2"></path><path d="M509.81 140C509.81 96.96 535.72 56.88 560 56.88C583.74 56.88 605.86 97.16 605.86 140C605.86 194.13 583.84 250.83 560 250.83C535.82 250.83 509.81 193.93 509.81 140" stroke="rgba(131, 100, 226, 1)" stroke-width="2"></path><path d="M1228.89 140C1228.89 121.99 1239.3 114.04 1260 106.84C1324.85 84.29 1330.28 79.12 1400 80.5C1470.28 81.89 1481.29 87.44 1540 112.39C1551.29 117.19 1540 126.19 1540 140C1540 152.73 1547.72 155.89 1540 165.45C1491.18 225.89 1449.16 212.6 1426.92 280C1407.16 339.87 1465.66 368.22 1456 420C1452.2 440.34 1427.75 424.24 1400 424.24C1393.09 424.24 1388.58 426.42 1386.67 420C1367.15 354.3 1389.91 339.9 1357.14 280C1326.57 224.13 1304.8 237.36 1260 188.46C1240.67 167.36 1228.89 162.8 1228.89 140" stroke="rgba(131, 100, 226, 1)" stroke-width="2"></path><path d="M380.8 280C380.8 266.44 398.82 256.1 420 256.1C459.26 256.1 501.67 265.85 501.67 280C501.67 294.7 458.12 313.79 420 313.79C397.68 313.79 380.8 295.29 380.8 280" stroke="rgba(131, 100, 226, 1)" stroke-width="2"></path><path d="M644.74 420C644.74 405.46 674.72 396.14 700 396.14C714.02 396.14 723.33 406.8 723.33 420C723.33 437.48 715.64 457.5 700 457.5C676.35 457.5 644.74 436.14 644.74 420" stroke="rgba(131, 100, 226, 1)" stroke-width="2"></path><path d="M1212.62 560C1212.62 535.51 1238.53 484.88 1260 484.88C1280.12 484.88 1295.81 533.74 1295.81 560C1295.81 571.3 1277.9 560 1260 560C1236.31 560 1212.62 573.07 1212.62 560" stroke="rgba(131, 100, 226, 1)" stroke-width="2"></path><path d="M1517.89 560C1517.89 513.09 1534.42 448 1540 448C1545.47 448 1549.23 513.23 1540 560C1538.18 569.23 1517.89 569.09 1517.89 560" stroke="rgba(131, 100, 226, 1)" stroke-width="2"></path></g><defs><mask id="SvgjsMask1010"><rect width="1440" height="560" fill="#ffffff"></rect></mask></defs></svg>